<svg width="81" height="80" viewBox="0 0 81 80" fill="none" xmlns="http://www.w3.org/2000/svg">
<circle cx="40" cy="40" r="40" fill="#08262E"/>
<rect x="57.3479" y="61.6973" width="20.1521" height="5.88673" fill="white" stroke="#08262E"/>
<line x1="77.7539" y1="64.7002" x2="57.0937" y2="64.7002" stroke="#08262E"/>
<rect x="3.5" y="58.5" width="54.4344" height="12.4329" fill="white" stroke="#08262E"/>
<path d="M17.36 39.792C20.288 39.664 24.528 39.456 28.592 39.232C29.008 39.68 29.36 40.096 29.616 40.464L31.296 39.312C30.368 38.064 28.384 36.4 26.736 35.28L25.2 36.272C25.744 36.672 26.32 37.136 26.88 37.6C25.152 37.648 23.424 37.696 21.856 37.744C22.464 36.832 23.088 35.808 23.616 34.816L21.488 34.352C21.088 35.408 20.432 36.72 19.776 37.792C18.8 37.808 17.904 37.824 17.152 37.84L17.36 39.792ZM27.68 39.744H25.696V41.856H22.272V39.888H20.352V41.856H16.784V43.648H20.256C20.016 45.2 19.216 46.816 16.656 48.032C17.104 48.352 17.808 49.008 18.096 49.44C21.136 47.92 22 45.728 22.208 43.648H25.696V49.408H27.68V43.648H31.264V41.856H27.68V39.744ZM35.216 35.728V37.792C35.712 37.76 36.384 37.728 36.944 37.728H43.36C43.92 37.728 44.544 37.76 45.088 37.792V35.728C44.544 35.808 43.904 35.84 43.36 35.84H36.928C36.4 35.84 35.744 35.808 35.216 35.728ZM33.36 39.824V41.92C33.808 41.888 34.416 41.856 34.896 41.856H39.296C39.232 43.2 38.96 44.4 38.304 45.392C37.664 46.32 36.544 47.248 35.408 47.68L37.28 49.04C38.704 48.32 39.936 47.072 40.496 45.968C41.072 44.848 41.424 43.504 41.52 41.856H45.376C45.824 41.856 46.432 41.872 46.832 41.904V39.824C46.416 39.888 45.712 39.92 45.376 39.92H34.896C34.4 39.92 33.84 39.872 33.36 39.824ZM57.168 35.52L54.832 34.752C54.688 35.296 54.352 36.032 54.112 36.432C53.312 37.808 51.92 39.872 49.12 41.584L50.912 42.912C52.48 41.84 53.872 40.432 54.944 39.04H59.44C59.184 40.24 58.256 42.16 57.168 43.408C55.776 44.992 54 46.384 50.72 47.36L52.608 49.056C55.616 47.872 57.552 46.4 59.072 44.544C60.512 42.752 61.424 40.624 61.856 39.2C61.984 38.8 62.208 38.352 62.384 38.048L60.752 37.04C60.384 37.152 59.856 37.232 59.36 37.232H56.144C56.16 37.2 56.176 37.184 56.192 37.152C56.384 36.8 56.8 36.08 57.168 35.52Z" fill="#DFDFDF"/>
<path d="M4.13905 44.8193C4.55236 44.7571 4.92648 44.7738 5.26142 44.8694C5.59444 44.9654 5.86553 45.1339 6.07472 45.375C6.28167 45.6144 6.41184 45.9069 6.46523 46.2524C6.51802 46.594 6.48209 46.9115 6.35746 47.2048C6.23059 47.4965 6.02398 47.739 5.73764 47.9323C5.451 48.1236 5.106 48.2506 4.70265 48.3134L4.4651 48.3492C4.05373 48.4112 3.67946 48.3935 3.34229 48.2962C3.00481 48.1969 2.7326 48.0276 2.52565 47.7882C2.31647 47.5472 2.18533 47.2548 2.13224 46.9113C2.07915 46.5677 2.11523 46.2512 2.24046 45.9617C2.36346 45.6706 2.56925 45.4292 2.85783 45.2376C3.14447 45.0463 3.49333 44.9186 3.9044 44.8547L4.13905 44.8193ZM4.03207 45.585C3.56469 45.6555 3.22015 45.7982 2.99845 46.0134C2.77645 46.2266 2.6905 46.4953 2.74061 46.8196C2.78952 47.1361 2.95242 47.3654 3.22929 47.5074C3.50394 47.6477 3.86849 47.6856 4.32295 47.6211L4.56629 47.5844C5.02981 47.5145 5.3742 47.3708 5.59947 47.1531C5.82443 46.9336 5.91216 46.6636 5.86265 46.3432C5.81255 46.0189 5.65047 45.7885 5.37642 45.6521C5.10207 45.5137 4.72734 45.4803 4.25224 45.5519L4.03207 45.585Z" fill="white"/>
<path d="M6.01012 38.2045L1.77505 37.6949L1.95408 36.244C2.01316 35.7652 2.15411 35.4123 2.37694 35.1853C2.59977 34.9584 2.90122 34.8678 3.28129 34.9135C3.4752 34.9368 3.64327 35.0102 3.78548 35.1335C3.9277 35.2569 4.02903 35.4245 4.08947 35.6363C4.17975 35.4151 4.31883 35.2528 4.50672 35.1495C4.69291 35.044 4.90624 35.0058 5.14669 35.0347C5.54421 35.0826 5.83384 35.2472 6.01557 35.5288C6.19754 35.8084 6.25923 36.1857 6.20063 36.6606L6.01012 38.2045ZM4.18987 37.2389L5.51333 37.3982L5.61415 36.5811C5.64261 36.3505 5.60765 36.1633 5.50927 36.0197C5.41088 35.876 5.25989 35.7919 5.05628 35.7674C4.61609 35.7145 4.36341 35.9123 4.29822 36.3608L4.18987 37.2389ZM3.64885 37.1738L3.73783 36.4527C3.76605 36.224 3.73667 36.0395 3.64968 35.8992C3.561 35.7567 3.42163 35.674 3.2316 35.6511C3.02217 35.6259 2.86351 35.6678 2.7556 35.7768C2.64793 35.8838 2.57855 36.0634 2.54745 36.3154L2.4592 37.0306L3.64885 37.1738Z" fill="white"/>
<path d="M6.96984 26.6597L6.31364 28.2841L7.53478 28.7652L8.30182 26.8664L8.85242 27.0834L7.80776 29.6694L3.83905 28.1058L4.87602 25.5388L5.43208 25.7578L4.67273 27.6376L5.76849 28.0693L6.42469 26.4449L6.96984 26.6597Z" fill="white"/>
<path d="M13.7993 19.1981L13.3459 19.7844L9.76655 19.4659L12.1826 21.2884L11.7292 21.8747L8.32373 19.306L8.77719 18.7196L12.3695 19.0405L9.94402 17.211L10.3939 16.6293L13.7993 19.1981Z" fill="white"/>
<path d="M18.587 9.96284L17.52 10.757L19.7453 13.6729L19.1554 14.1119L16.9301 11.196L15.8726 11.9832L15.51 11.5081L18.2245 9.48773L18.587 9.96284Z" fill="white"/>
<path d="M28.2079 6.96102C28.362 7.34957 28.4299 7.71697 28.4117 8.06323C28.3927 8.40767 28.2889 8.70747 28.1001 8.96263C27.9124 9.21527 27.6556 9.40462 27.3295 9.5307C27.007 9.65536 26.6882 9.68857 26.3731 9.63032C26.0591 9.56955 25.7753 9.42068 25.5217 9.1837C25.2699 8.94602 25.0679 8.63779 24.9156 8.25902L24.8271 8.0357C24.6738 7.64896 24.6068 7.2812 24.6261 6.93243C24.6472 6.58294 24.7516 6.28188 24.9393 6.02925C25.1281 5.77409 25.3846 5.58382 25.7089 5.45846C26.0331 5.33309 26.351 5.30023 26.6625 5.35989C26.975 5.41702 27.2576 5.56534 27.5101 5.80484C27.7619 6.04252 27.9653 6.35438 28.1205 6.74041L28.2079 6.96102ZM27.4345 7.02132C27.2604 6.58193 27.043 6.27752 26.7826 6.10809C26.524 5.93797 26.2416 5.91207 25.9356 6.03039C25.6368 6.1459 25.4492 6.35351 25.3726 6.65323C25.2971 6.95044 25.3421 7.31308 25.5076 7.74117L25.5983 7.96995C25.7711 8.40571 25.9893 8.70976 26.253 8.88211C26.5185 9.05376 26.8025 9.08112 27.1049 8.96421C27.411 8.84588 27.5999 8.63882 27.6717 8.34303C27.7454 8.04653 27.6937 7.67496 27.5166 7.2283L27.4345 7.02132Z" fill="white"/>
<path d="M34.8803 6.19998C34.8602 6.00373 34.8953 5.81868 34.9856 5.64483C35.0756 5.46903 35.2665 5.25276 35.5584 4.99603C35.372 4.80457 35.2383 4.63926 35.1573 4.50012C35.0783 4.36077 35.0319 4.2231 35.018 4.08708C34.9841 3.75483 35.0584 3.48246 35.2409 3.26997C35.4232 3.05555 35.6853 2.93131 36.0274 2.89726C36.3364 2.8665 36.5984 2.93267 36.8133 3.09577C37.03 3.25674 37.152 3.47129 37.1794 3.73943C37.1974 3.91625 37.1694 4.08391 37.0953 4.24242C37.0209 4.39899 36.8893 4.56127 36.7003 4.72926L36.4331 4.96783L37.3511 5.85391C37.4458 5.60895 37.4786 5.34365 37.4495 5.05803L38.0646 4.99679C38.1179 5.51947 38.0392 5.96009 37.8284 6.31867L38.5276 6.99395L37.7055 7.07579L37.4376 6.81687C37.1576 7.07439 36.8077 7.22404 36.3879 7.26583C35.9681 7.30763 35.6206 7.23034 35.3453 7.03399C35.0718 6.8355 34.9168 6.5575 34.8803 6.19998ZM36.3506 6.69838C36.5896 6.67458 36.805 6.57267 36.9967 6.39264L35.9581 5.39197L35.8743 5.46509C35.6591 5.66512 35.5631 5.87881 35.5863 6.10614C35.6063 6.30239 35.6858 6.45543 35.8246 6.56526C35.9634 6.6751 36.1387 6.71947 36.3506 6.69838ZM35.6809 4.00343C35.6975 4.16664 35.8186 4.36167 36.0439 4.5885L36.3449 4.33479L36.4279 4.25293C36.5374 4.13406 36.5837 3.99108 36.5667 3.82398C36.5554 3.71323 36.5039 3.62315 36.4124 3.55375C36.3207 3.48241 36.2108 3.45312 36.0825 3.46589C35.9445 3.47962 35.8394 3.53719 35.7673 3.63858C35.6952 3.73997 35.6664 3.86159 35.6809 4.00343Z" fill="white"/>
<path d="M47.6162 4.028L46.3023 3.82143L45.7186 7.44265L44.9921 7.32845L45.5759 3.70723L44.2735 3.50247L44.3686 2.91243L47.7114 3.43796L47.6162 4.028Z" fill="white"/>
<path d="M55.1437 9.28266L53.6294 8.6216L52.9068 9.3898L52.2006 9.08154L55.42 5.83277L56.0295 6.09884L55.7663 10.6381L55.0575 10.3286L55.1437 9.28266ZM54.0642 8.15931L55.1972 8.65394L55.3536 6.7915L54.0642 8.15931Z" fill="white"/>
<path d="M62.4218 12.7127L61.7198 12.8115L60.8828 13.8452L60.3011 13.3858L62.9854 10.0707L63.5671 10.5301L62.3079 12.0852L62.9487 11.9455L64.8684 11.5578L65.572 12.1134L63.139 12.5997L62.9589 15.4848L62.2692 14.9401L62.4218 12.7127Z" fill="white"/>
<path d="M69.7597 20.2269L68.7079 18.8258L67.6489 19.6011L68.8783 21.2388L68.4008 21.5884L66.7264 19.3579L70.1682 16.8381L71.8303 19.0522L71.3481 19.4053L70.131 17.7839L69.1807 18.4796L70.2325 19.8808L69.7597 20.2269Z" fill="white"/>
<path d="M74.5325 29.1945C74.1415 29.3422 73.7719 29.4045 73.4237 29.3815C73.0773 29.3578 72.776 29.2503 72.5197 29.059C72.266 28.8688 72.076 28.6107 71.9497 28.2847C71.8249 27.9623 71.792 27.6449 71.8511 27.3324C71.9128 27.021 72.063 26.7409 72.3017 26.492C72.5412 26.245 72.8515 26.0485 73.2327 25.9025L73.4574 25.8176C73.8466 25.6706 74.2166 25.6092 74.5673 25.6333C74.9187 25.6593 75.2213 25.7674 75.4751 25.9575C75.7313 26.1489 75.9223 26.4066 76.0478 26.7308C76.1733 27.055 76.2058 27.3715 76.1453 27.6804C76.0873 27.9904 75.9377 28.2693 75.6964 28.517C75.457 28.764 75.143 28.9619 74.7545 29.1107L74.5325 29.1945ZM74.4732 28.4246C74.9153 28.2576 75.2218 28.0459 75.3927 27.7893C75.5642 27.5345 75.5907 27.2542 75.4722 26.9482C75.3566 26.6495 75.1481 26.4599 74.8468 26.3796C74.548 26.3003 74.1833 26.34 73.7525 26.4985L73.5222 26.5854C73.0837 26.751 72.7776 26.9637 72.6038 27.2235C72.4307 27.4851 72.4027 27.7671 72.5198 28.0694C72.6383 28.3754 72.8462 28.5662 73.1436 28.6418C73.4416 28.7192 73.8154 28.673 74.2649 28.5033L74.4732 28.4246Z" fill="white"/>
<path d="M78.673 38.7716L75.8344 39.0318C75.3831 39.0732 75.0116 38.9611 74.7199 38.6957C74.4303 38.4319 74.2629 38.0599 74.2177 37.5796C74.172 37.0935 74.2651 36.6956 74.4969 36.3861C74.7307 36.0763 75.078 35.9003 75.539 35.8581L78.3748 35.5981L78.4438 36.3332L75.6022 36.5936C75.3183 36.6197 75.1082 36.7115 74.9719 36.8691C74.8357 37.0268 74.7807 37.2456 74.8071 37.5256C74.8604 38.0934 75.1866 38.3498 75.7857 38.2949L78.604 38.0366L78.673 38.7716Z" fill="white"/>
<path d="M77.3219 48.4103L77.5441 47.0989L73.9252 46.5009L74.048 45.7759L77.6669 46.3739L77.8871 45.074L78.4768 45.1715L77.9115 48.5077L77.3219 48.4103Z" fill="white"/>
</svg>
