<svg width="80" height="80" viewBox="0 0 80 80" fill="none" xmlns="http://www.w3.org/2000/svg">
<circle cx="40" cy="40" r="40" fill="white"/>
<circle cx="40" cy="40" r="40" stroke="black"/>
<rect x="57.3477" y="61.6975" width="20.1521" height="5.88673" fill="white" stroke="#08262E"/>
<path d="M77.7539 64.7H57.0937" stroke="#08262E"/>
<rect x="3" y="58" width="55.4344" height="13.4329" fill="#08262E"/>
<rect x="3" y="58" width="55.4344" height="13.4329" stroke="#08262E"/>
<path d="M17.36 39.792C20.288 39.664 24.528 39.456 28.592 39.232C29.008 39.68 29.36 40.096 29.616 40.464L31.296 39.312C30.368 38.064 28.384 36.4 26.736 35.28L25.2 36.272C25.744 36.672 26.32 37.136 26.88 37.6C25.152 37.648 23.424 37.696 21.856 37.744C22.464 36.832 23.088 35.808 23.616 34.816L21.488 34.352C21.088 35.408 20.432 36.72 19.776 37.792C18.8 37.808 17.904 37.824 17.152 37.84L17.36 39.792ZM27.68 39.744H25.696V41.856H22.272V39.888H20.352V41.856H16.784V43.648H20.256C20.016 45.2 19.216 46.816 16.656 48.032C17.104 48.352 17.808 49.008 18.096 49.44C21.136 47.92 22 45.728 22.208 43.648H25.696V49.408H27.68V43.648H31.264V41.856H27.68V39.744ZM35.216 35.728V37.792C35.712 37.76 36.384 37.728 36.944 37.728H43.36C43.92 37.728 44.544 37.76 45.088 37.792V35.728C44.544 35.808 43.904 35.84 43.36 35.84H36.928C36.4 35.84 35.744 35.808 35.216 35.728ZM33.36 39.824V41.92C33.808 41.888 34.416 41.856 34.896 41.856H39.296C39.232 43.2 38.96 44.4 38.304 45.392C37.664 46.32 36.544 47.248 35.408 47.68L37.28 49.04C38.704 48.32 39.936 47.072 40.496 45.968C41.072 44.848 41.424 43.504 41.52 41.856H45.376C45.824 41.856 46.432 41.872 46.832 41.904V39.824C46.416 39.888 45.712 39.92 45.376 39.92H34.896C34.4 39.92 33.84 39.872 33.36 39.824ZM57.168 35.52L54.832 34.752C54.688 35.296 54.352 36.032 54.112 36.432C53.312 37.808 51.92 39.872 49.12 41.584L50.912 42.912C52.48 41.84 53.872 40.432 54.944 39.04H59.44C59.184 40.24 58.256 42.16 57.168 43.408C55.776 44.992 54 46.384 50.72 47.36L52.608 49.056C55.616 47.872 57.552 46.4 59.072 44.544C60.512 42.752 61.424 40.624 61.856 39.2C61.984 38.8 62.208 38.352 62.384 38.048L60.752 37.04C60.384 37.152 59.856 37.232 59.36 37.232H56.144C56.16 37.2 56.176 37.184 56.192 37.152C56.384 36.8 56.8 36.08 57.168 35.52Z" fill="#08262E"/>
<path d="M4.13732 43.8154C4.55057 43.7528 4.92459 43.7692 5.25938 43.8647C5.59224 43.9604 5.86313 44.1287 6.07208 44.3697C6.27879 44.609 6.4087 44.9014 6.46179 45.247C6.5143 45.5887 6.47814 45.9063 6.3533 46.1998C6.22623 46.4916 6.01948 46.7343 5.73305 46.9279C5.44633 47.1195 5.10132 47.2468 4.69802 47.3099L4.4605 47.3459C4.04918 47.4082 3.67501 47.3908 3.33799 47.2938C3.00068 47.1947 2.72867 47.0256 2.52196 46.7863C2.31301 46.5453 2.18214 46.253 2.12934 45.9094C2.07654 45.5658 2.11285 45.2492 2.23828 44.9595C2.36149 44.6682 2.56742 44.4267 2.85607 44.2348C3.1428 44.0432 3.49167 43.9152 3.9027 43.851L4.13732 43.8154ZM4.02976 44.5814C3.56243 44.6522 3.21786 44.7953 2.99605 45.0106C2.77393 45.224 2.68779 45.4929 2.73763 45.8172C2.78628 46.1338 2.94895 46.363 3.22565 46.5048C3.50012 46.645 3.86455 46.6826 4.31895 46.6177L4.56227 46.5808C5.02573 46.5106 5.37015 46.3665 5.59553 46.1487C5.82062 45.9289 5.90854 45.6587 5.8593 45.3383C5.80946 45.014 5.6476 44.7837 5.37373 44.6474C5.09955 44.5092 4.72495 44.476 4.2499 44.548L4.02976 44.5814Z" fill="#08262E"/>
<path d="M6.00839 37.2128L1.77409 36.6969L1.95092 35.2457C2.00928 34.7668 2.14967 34.414 2.37208 34.1873C2.5945 33.9606 2.89571 33.8704 3.27571 33.9167C3.46959 33.9403 3.6377 34.0139 3.78004 34.1375C3.92239 34.2611 4.02393 34.4289 4.08466 34.6409C4.17458 34.4197 4.31338 34.2576 4.50105 34.1545C4.68702 34.0493 4.90021 34.0113 5.14062 34.0406C5.53807 34.0891 5.82784 34.2542 6.00992 34.5361C6.19223 34.8161 6.25445 35.1936 6.19657 35.6686L6.00839 37.2128ZM4.18738 36.2442L5.5106 36.4055L5.61018 35.5883C5.63829 35.3576 5.60307 35.1703 5.50451 35.0265C5.40595 34.8826 5.25489 34.7983 5.05132 34.7735C4.61121 34.7199 4.35891 34.9174 4.2944 35.366L4.18738 36.2442ZM3.64646 36.1783L3.73434 35.4571C3.76222 35.2283 3.73258 35.0437 3.64542 34.9032C3.55655 34.7606 3.41712 34.6777 3.22712 34.6545C3.01773 34.629 2.85918 34.6707 2.75147 34.7795C2.644 34.8865 2.57491 35.0659 2.54419 35.318L2.45701 36.0334L3.64646 36.1783Z" fill="#08262E"/>
<path d="M6.95011 25.6645L6.29701 27.2902L7.51724 27.7736L8.28065 25.8734L8.83085 26.0913L7.79113 28.6793L3.82536 27.1083L4.85743 24.5393L5.41308 24.7594L4.65732 26.6406L5.75226 27.0744L6.40536 25.4487L6.95011 25.6645Z" fill="#08262E"/>
<path d="M13.7451 18.2043L13.2932 18.7918L9.72269 18.47L12.1339 20.2989L11.682 20.8864L8.28342 18.3087L8.73532 17.7211L12.3187 18.0453L9.89812 16.2094L10.3464 15.6265L13.7451 18.2043Z" fill="#08262E"/>
<path d="M18.4979 8.9589L17.4331 9.75585L19.6505 12.6776L19.0618 13.1182L16.8443 10.1965L15.7888 10.9864L15.4275 10.5103L18.1366 8.48283L18.4979 8.9589Z" fill="#08262E"/>
<path d="M28.0709 5.95688C28.2242 6.34572 28.2916 6.71351 28.2729 7.06023C28.2535 7.40514 28.1494 7.70547 27.9605 7.96121C27.7727 8.21443 27.5159 8.40438 27.19 8.53106C26.8678 8.65632 26.5494 8.69 26.2347 8.63211C25.9212 8.57169 25.638 8.42301 25.385 8.18607C25.1338 7.94843 24.9325 7.64008 24.781 7.26103L24.6929 7.03754C24.5403 6.65051 24.4739 6.28238 24.4936 5.93313C24.5152 5.58317 24.6199 5.28158 24.8077 5.02836C24.9966 4.77262 25.2531 4.58176 25.5771 4.45579C25.9011 4.32982 26.2186 4.29649 26.5296 4.3558C26.8417 4.41258 27.1237 4.56071 27.3756 4.80017C27.6267 5.03782 27.8295 5.3498 27.9839 5.73611L28.0709 5.95688ZM27.2984 6.01831C27.1251 5.57859 26.9085 5.27409 26.6486 5.1048C26.3905 4.93481 26.1086 4.90926 25.8027 5.02815C25.5042 5.14421 25.3165 5.35235 25.2396 5.65256C25.1638 5.95025 25.2083 6.3133 25.373 6.74171L25.4632 6.97066C25.6351 7.40674 25.8527 7.71089 26.1158 7.8831C26.3808 8.05461 26.6643 8.08162 26.9665 7.96415C27.2724 7.84525 27.4613 7.63767 27.5335 7.3414C27.6074 7.04442 27.5563 6.67244 27.3801 6.22545L27.2984 6.01831Z" fill="#08262E"/>
<path d="M34.6901 5.19987C34.6702 5.00361 34.7054 4.81852 34.7957 4.6446C34.8858 4.46874 35.0768 4.25234 35.3688 3.99542C35.1825 3.80404 35.0489 3.63879 34.968 3.49967C34.8891 3.36036 34.8427 3.22269 34.8289 3.08667C34.7952 2.75439 34.8696 2.48195 35.0522 2.26935C35.2346 2.0548 35.4968 1.93041 35.8389 1.89617C36.1479 1.86524 36.4098 1.93128 36.6246 2.09429C36.8412 2.25516 36.9631 2.46967 36.9903 2.73782C37.0082 2.91465 36.9801 3.08235 36.9059 3.24092C36.8315 3.39754 36.6998 3.55991 36.5107 3.72801L36.2434 3.96676L37.1608 4.85245C37.2557 4.60741 37.2886 4.34206 37.2596 4.05642L37.8747 3.99485C37.9278 4.51756 37.8488 4.95827 37.6379 5.31701L38.3366 5.99198L37.5145 6.07427L37.2468 5.81547C36.9667 6.07316 36.6167 6.22302 36.197 6.26504C35.7772 6.30706 35.4297 6.22996 35.1546 6.03373C34.8812 5.83536 34.7264 5.55741 34.6901 5.19987ZM36.16 5.69754C36.399 5.67362 36.6144 5.57158 36.8062 5.39142L35.7682 4.3912L35.6844 4.46437C35.4691 4.66454 35.373 4.8783 35.3961 5.10565C35.416 5.3019 35.4953 5.45492 35.6341 5.56469C35.7728 5.67446 35.9481 5.71875 36.16 5.69754ZM35.4918 3.00265C35.5084 3.16587 35.6293 3.36086 35.8545 3.5876L36.1556 3.33369L36.2386 3.25178C36.3482 3.13284 36.3945 2.98982 36.3776 2.82271C36.3663 2.71195 36.315 2.62189 36.2235 2.55253C36.1319 2.48123 36.0219 2.45199 35.8936 2.46483C35.7557 2.47865 35.6506 2.53627 35.5784 2.63771C35.5063 2.73915 35.4774 2.8608 35.4918 3.00265Z" fill="#08262E"/>
<path d="M47.3729 3.03151L46.0591 2.82382L45.4785 6.44555L44.7522 6.33073L45.3328 2.709L44.0306 2.50315L44.1252 1.91303L47.4675 2.44139L47.3729 3.03151Z" fill="#08262E"/>
<path d="M54.851 8.29232L53.338 7.6282L52.6176 8.39658L51.912 8.08689L55.1221 4.83755L55.7311 5.10485L55.4746 9.65064L54.7663 9.33978L54.851 8.29232ZM53.7715 7.1658L54.9036 7.66271L55.0571 5.79765L53.7715 7.1658Z" fill="#08262E"/>
<path d="M62.0779 11.7229L61.3778 11.8216L60.5435 12.8576L59.9631 12.3966L62.6385 9.07433L63.2189 9.53526L61.9639 11.0937L62.603 10.954L64.5175 10.5664L65.2196 11.1239L62.7932 11.6101L62.6153 14.5027L61.927 13.9562L62.0779 11.7229Z" fill="#08262E"/>
<path d="M69.368 19.24L68.32 17.8361L67.263 18.6142L68.488 20.2552L68.0115 20.606L66.343 18.371L69.7782 15.8422L71.4344 18.0607L70.9531 18.4151L69.7403 16.7905L68.7918 17.4887L69.8399 18.8926L69.368 19.24Z" fill="#08262E"/>
<path d="M74.1061 28.2041C73.7153 28.3525 73.3461 28.4154 72.9984 28.3928C72.6525 28.3696 72.3516 28.2624 72.0959 28.0711C71.8427 27.8811 71.6533 27.6229 71.5277 27.2967C71.4035 26.974 71.3711 26.6562 71.4306 26.3433C71.4925 26.0314 71.6429 25.7508 71.8818 25.5013C72.1213 25.2537 72.4315 25.0565 72.8124 24.9098L73.037 24.8245C73.4259 24.6768 73.7955 24.6148 74.1457 24.6385C74.4967 24.664 74.7988 24.7718 75.052 24.9618C75.3077 25.153 75.498 25.4109 75.6229 25.7353C75.7479 26.0597 75.7799 26.3766 75.719 26.6859C75.6607 26.9964 75.5109 27.2758 75.2695 27.5241C75.03 27.7718 74.7162 27.9703 74.3279 28.1198L74.1061 28.2041ZM74.0479 27.4333C74.4898 27.2656 74.7962 27.0531 74.9671 26.796C75.1388 26.5407 75.1657 26.2599 75.0478 25.9537C74.9327 25.6548 74.7247 25.4653 74.4239 25.3852C74.1256 25.3063 73.7612 25.3465 73.3307 25.5058L73.1007 25.5931C72.6624 25.7595 72.3564 25.9729 72.1824 26.2332C72.0092 26.4954 71.9809 26.7778 72.0974 27.0803C72.2153 27.3865 72.4227 27.5773 72.7196 27.6526C73.0172 27.7297 73.3906 27.683 73.8397 27.5124L74.0479 27.4333Z" fill="#08262E"/>
<path d="M78.2316 37.7724L75.3931 38.0341C74.9418 38.0757 74.5704 37.9638 74.2789 37.6984C73.9894 37.4348 73.8222 37.0628 73.7773 36.5825C73.7319 36.0963 73.8251 35.6984 74.0571 35.3887C74.291 35.0788 74.6384 34.9026 75.0993 34.8601L77.935 34.5988L78.0037 35.3338L75.1622 35.5957C74.8782 35.6219 74.6681 35.7139 74.5318 35.8716C74.3955 36.0293 74.3404 36.2481 74.3666 36.5282C74.4197 37.096 74.7457 37.3523 75.3448 37.2971L78.1629 37.0373L78.2316 37.7724Z" fill="#08262E"/>
<path d="M76.8849 47.4085L77.1059 46.0969L73.4875 45.4957L73.6097 44.7706L77.2281 45.3718L77.4471 44.0718L78.0367 44.1697L77.4745 47.5065L76.8849 47.4085Z" fill="#08262E"/>
</svg>
